# xmcd CD database file
#
# Track frame offsets:
#	150
#	10566
#	27443
#	48458
#	65001
#	94256
#	110355
#	129644
#	143984
#	169285
#
# Disc length: 2721 seconds
#
# Revision: 1
# Processed by: cddbd v1.5.2PL0 Copyright (c) Steve Scherf et al.
# Submitted via: CDex 1.50
#
DISCID=8a0a9f0a
DTITLE=Antje Uhle - Alone Together
DYEAR=2010
DGENRE=Jazz
TTITLE0=Lotus Blossom
TTITLE1=Mean To Me
TTITLE2=On a Clear Day
TTITLE3=Speaking Swinglish
TTITLE4=My Funny Valentine
TTITLE5=They Can't Take That Away From Me
TTITLE6=Alone Together
TTITLE7=Basin Street Blues
TTITLE8=Summertime - Autumn Leaves
TTITLE9=Two Sleepy People
EXTD=YEAR: 2010
EXTT0=
EXTT1=
EXTT2=
EXTT3=
EXTT4=
EXTT5=
EXTT6=
EXTT7=
EXTT8=
EXTT9=
PLAYORDER=
